<?xml version="1.0" standalone="no"?><!DOCTYPE svg PUBLIC "-//W3C//DTD SVG 1.1//EN" "http://www.w3.org/Graphics/SVG/1.1/DTD/svg11.dtd"><svg t="1567071923280" class="icon" viewBox="0 0 1024 1024" version="1.1" xmlns="http://www.w3.org/2000/svg" p-id="11216" xmlns:xlink="http://www.w3.org/1999/xlink" width="200" height="200"><defs><style type="text/css"></style></defs><path d="M307.2 307.2V0L171.776 135.424 36.096 0 0 36.096l135.424 135.68L0 307.2h307.2z" p-id="11217"></path><path d="M512 0v51.2A460.8 460.8 0 1 1 51.2 512H0A512 512 0 1 0 512 0z" p-id="11218"></path><path d="M519.936 847.36h51.2v-125.44h153.6v-51.2h-153.6v-58.368h153.6v-51.2h-153.6v-0.768l134.656-134.656-36.096-36.096-125.44 125.184-125.44-125.184-36.352 36.096 135.68 135.424h-151.808v51.2h153.6v58.368h-153.6v51.2h153.6v125.44z"  p-id="11219"></path></svg>