<?xml version="1.0" standalone="no"?><!DOCTYPE svg PUBLIC "-//W3C//DTD SVG 1.1//EN" "http://www.w3.org/Graphics/SVG/1.1/DTD/svg11.dtd"><svg t="1567071008719" class="icon" viewBox="0 0 1024 1024" version="1.1" xmlns="http://www.w3.org/2000/svg" p-id="1787" xmlns:xlink="http://www.w3.org/1999/xlink" width="200" height="200"><defs><style type="text/css"></style></defs><path d="M364.8 501.333333l174.933333 136.533334 14.933334 10.666666 10.666666-14.933333 204.8-262.4c6.4-8.533333 4.266667-19.2-4.266666-25.6-8.533333-6.4-19.2-4.266667-25.6 4.266667l-192 247.466666-172.8-134.4-12.8-10.666666-10.666667 12.8-132.266667 147.2c-6.4 8.533333-6.4 19.2 2.133334 25.6 8.533333 6.4 19.2 6.4 25.6-2.133334l117.333333-134.4z"  p-id="1788"></path><path d="M509.866667 89.6C275.2 89.6 85.333333 279.466667 85.333333 514.133333 85.333333 748.8 275.2 938.666667 509.866667 938.666667c98.133333 0 189.866667-32 264.533333-91.733334 8.533333-6.4 10.666667-19.2 4.266667-29.866666-6.4-8.533333-19.2-10.666667-29.866667-4.266667C680.533333 866.133333 597.333333 896 509.866667 896c-211.2 0-384-170.666667-384-381.866667 0-211.2 170.666667-381.866667 384-381.866666 211.2 0 384 170.666667 384 381.866666 0 72.533333-19.2 140.8-57.6 202.666667-6.4 10.666667-2.133333 23.466667 6.4 27.733333 10.666667 6.4 23.466667 2.133333 27.733333-6.4 42.666667-66.133333 64-142.933333 64-224 0-234.666667-189.866667-424.533333-424.533333-424.533333z"  p-id="1789"></path></svg>