<?xml version="1.0" standalone="no"?><!DOCTYPE svg PUBLIC "-//W3C//DTD SVG 1.1//EN" "http://www.w3.org/Graphics/SVG/1.1/DTD/svg11.dtd"><svg t="1567071004543" class="icon" viewBox="0 0 1024 1024" version="1.1" xmlns="http://www.w3.org/2000/svg" p-id="1664" xmlns:xlink="http://www.w3.org/1999/xlink" width="200" height="200"><defs><style type="text/css"></style></defs><path d="M421.64711469 512.00879187a90.5415 88.57100906 0 1 0 181.08299906 0 90.5415 88.57100906 0 1 0-181.08299906 0Z" p-id="1665"></path><path d="M512.13808813 206.83543344A305.1733575 305.1733575 0 1 0 817.31144656 512.00879187 305.1733575 305.1733575 0 0 0 512.13808813 206.83543344z m249.94910624 387.93394781l-51.73799906 87.61102688a12.78292406 12.78292406 0 0 1-15.76392187 5.5577925l-64.41987282-25.26269532a201.29315531 201.29315531 0 0 1-43.70446312 24.80796657L576.60848656 754.530665a12.53029688 12.53029688 0 0 1-12.68187281 10.66085719H460.45061469a12.53029688 12.53029688 0 0 1-12.68187375-10.66085719l-9.80192532-67.04719313a190.32914531 190.32914531 0 0 1-43.70446312-24.80796656l-64.41987281 25.26269531a13.18712719 13.18712719 0 0 1-15.81444656-5.5577925l-51.738-87.61102687a12.53029688 12.53029688 0 0 1 3.13257468-16.168125L320.14160469 536.81675844a201.14157937 201.14157937 0 0 1-1.97049-24.80796656 192.40068656 192.40068656 0 0 1 1.97049-24.8079675l-54.56742094-41.73397219a12.32819531 12.32819531 0 0 1-3.13257469-16.21865063l51.58642406-87.56050125a12.78292406 12.78292406 0 0 1 15.81444657-5.60831812l64.41987281 25.26269531a199.17108844 199.17108844 0 0 1 43.70446312-24.85849219L447.76874094 269.48691781a12.5808225 12.5808225 0 0 1 12.68187375-10.66085718h103.47599906a12.5808225 12.5808225 0 0 1 12.68187281 10.66085718l9.85245094 67.04719313a191.54175469 191.54175469 0 0 1 43.70446312 24.85849219l64.41987282-25.26269532a13.13660156 13.13660156 0 0 1 15.76392187 5.60831813l51.73799906 87.56050125a12.63134719 12.63134719 0 0 1-3.08204812 16.21865062l-54.6179475 41.73397219a170.06846437 170.06846437 0 0 1 0 49.61593313l54.6179475 41.78449781a12.5808225 12.5808225 0 0 1 3.08204812 16.11760031z"  p-id="1666"></path><path d="M512.13808813 992A480.54698812 480.54698812 0 0 1 32.14688 499.57954531C38.91728188 238.81800594 255.51963125 29.79446562 516.38222094 32.01758281a476.75758406 476.75758406 0 0 1 259.85208281 79.12276125 15.51129469 15.51129469 0 0 1 4.04203125 21.87749438 15.46076906 15.46076906 0 0 1-21.17013844 3.94098 448.10968688 448.10968688 0 1 0 160.01391188 185.02398 15.41024438 15.41024438 0 0 1 6.92197781-20.21015625 15.15761719 15.15761719 0 0 1 21.0185625 7.174605A474.43341563 474.43341563 0 0 1 992.12929719 512.00879187a480.54698812 480.54698812 0 0 1-479.99120907 479.99120813z"  p-id="1667"></path><path d="M901.23411969 241.39480062m-17.48178469 0a17.48178469 17.48178469 0 1 0 34.96357031 0 17.48178469 17.48178469 0 1 0-34.96357031 0Z"  p-id="1668"></path></svg>