<?xml version="1.0" standalone="no"?><!DOCTYPE svg PUBLIC "-//W3C//DTD SVG 1.1//EN" "http://www.w3.org/Graphics/SVG/1.1/DTD/svg11.dtd"><svg t="1567076249173" class="icon" viewBox="0 0 1024 1024" version="1.1" xmlns="http://www.w3.org/2000/svg" p-id="16375" xmlns:xlink="http://www.w3.org/1999/xlink" width="200" height="200"><defs><style type="text/css"></style></defs><path d="M0.020978 521.660011c0-94.197382 17.33583-166.130691 52.018747-215.809137 34.674731-49.674353 84.819804-74.513064 150.433174-74.513064 125.125789 0 187.688683 92.558046 187.688683 277.667997 0 91.153046-16.991999 161.503301-50.966789 211.064067-33.977859 49.557696-83.067904 74.337055-147.267065 74.337055C63.988872 794.405905 0.020978 703.493336 0.020978 521.660011zM114.951567 518.847965c0 125.59651 26.828019 188.392718 80.490196 188.392718 52.721759 0 79.081103-64.671928 79.081103-194.017832 0-129.810484-25.65531-194.718797-76.971046-194.718797C142.482597 318.504054 114.951567 385.285017 114.951567 518.847965z" p-id="16376"></path><path d="M421.118642 380.363937c0-44.51689 12.356422-80.19139 37.0795-107.025549 24.718985-26.825972 58.170864-40.241516 100.348476-40.241516 40.297798 0 71.640644 12.18553 94.021374 36.554544 22.372543 24.37106 33.565467 57.991786 33.565467 100.871385 0 44.054355-12.423961 79.320557-37.256532 105.796558-24.838711 26.481118-57.993832 39.71656-99.468432 39.71656-38.897915 0-70.004377-12.418844-93.318362-37.256532C432.773076 453.942723 421.118642 421.135526 421.118642 380.363937zM498.443751 376.499933c0 50.381457 18.506493 75.566046 55.534827 75.566046 37.72316 0 56.587809-26.241664 56.587809-78.731132 0-50.845015-18.048051-76.269058-54.128805-76.269058C517.775029 297.065789 498.443751 323.545884 498.443751 376.499933zM943.063131 240.475933 589.125053 785.26778l-88.221274 0 353.235067-544.791847L943.063131 240.475933zM758.538511 656.626935c0-44.989657 12.530384-80.777745 37.607526-107.375519 25.071002-26.591635 58.461483-39.893592 100.171444-39.893592 40.297798 0 71.640644 11.952216 94.019327 35.852556 22.37459 23.899316 33.567513 57.524135 33.567513 100.871385 0 44.523029-12.537548 80.08292-37.608549 106.672508-25.076118 26.598798-58.229193 39.895639-99.467409 39.895639-38.662555 0-69.714781-12.480242-93.142353-37.433564C770.252297 730.259956 758.538511 697.398524 758.538511 656.626935zM835.51058 652.762931c0 50.612725 18.628266 75.918064 55.884798 75.918064 37.486776 0 56.236815-26.240641 56.236815-78.731132 0-24.604374-4.981455-43.523259-14.94027-56.766888-9.960863-13.235442-23.25668-19.85521-39.890522-19.85521C854.60752 573.328787 835.51058 599.809905 835.51058 652.762931z" p-id="16377"></path></svg>