<?xml version="1.0" standalone="no"?><!DOCTYPE svg PUBLIC "-//W3C//DTD SVG 1.1//EN" "http://www.w3.org/Graphics/SVG/1.1/DTD/svg11.dtd"><svg t="1567075670606" class="icon" viewBox="0 0 1024 1024" version="1.1" xmlns="http://www.w3.org/2000/svg" p-id="16068" xmlns:xlink="http://www.w3.org/1999/xlink" width="200" height="200"><defs><style type="text/css"></style></defs><path d="M515.584 94.208c232.675556 0 426.097778 193.422222 426.097778 426.097778s-187.847111 426.154667-426.097778 426.154666c-196.266667 0-361.699556-134.542222-412.16-314.026666-0.170667-22.016 9.557333-33.678222 29.184-34.929778 19.626667-1.251556 33.109333 10.410667 40.561778 34.986667 50.460444 128.910222 171.349333 248.945778 342.414222 248.945777 197.006222 0 360.220444-176.071111 360.220444-361.130666 0-185.002667-149.276444-360.675556-360.220444-360.675556-152.348444 0-258.104889 96.938667-316.984889 209.066667l82.545778 66.56-204.288 14.620444-9.671111-193.649777 77.141333 65.080888C214.471111 175.786667 358.570667 94.208 515.584 94.208z m-173.169778 502.215111c0-16.952889 13.653333-30.606222 30.606222-30.492444h122.311112V504.775111h-122.311112a30.549333 30.549333 0 1 1 0-61.155555H452.266667L380.928 371.825778a30.606222 30.606222 0 0 1 43.406222-43.178667l101.660445 102.172445 100.579555-100.693334a30.606222 30.606222 0 0 1 43.292445 43.235556l-70.144 70.144h79.075555a30.549333 30.549333 0 1 1 0 61.155555h-122.311111v61.155556h122.311111a30.549333 30.549333 0 1 1 0 61.155555h-122.311111v91.761778a30.549333 30.549333 0 1 1-61.155555 0V626.915556h-122.311112a30.549333 30.549333 0 0 1-30.606222-30.549334z"  p-id="16069"></path></svg>