<?xml version="1.0" standalone="no"?><!DOCTYPE svg PUBLIC "-//W3C//DTD SVG 1.1//EN" "http://www.w3.org/Graphics/SVG/1.1/DTD/svg11.dtd"><svg t="1567071016077" class="icon" viewBox="0 0 1025 1024" version="1.1" xmlns="http://www.w3.org/2000/svg" p-id="2046" xmlns:xlink="http://www.w3.org/1999/xlink" width="200.1953125" height="200"><defs><style type="text/css"></style></defs><path d="M501.25720625 540.125C490.00720625 540.125 473.13220625 528.875 473.13220625 512L473.13220625 258.875C473.13220625 247.625 490.00720625 230.75 501.25720625 230.75s28.125 11.25 28.125 28.125L529.38220625 512C529.38220625 528.875 518.13220625 540.125 501.25720625 540.125z"  p-id="2047"></path><path d="M625.00720625 703.25c-11.25 0-16.875-5.625-22.5-11.25L478.75720625 528.875C473.13220625 517.625 473.13220625 500.75 484.38220625 489.5c11.25-11.25 28.125-5.625 39.375 5.625l123.75 163.125c11.25 11.25 5.625 28.125-5.625 39.375C636.25720625 703.25 630.63220625 703.25 625.00720625 703.25z"  p-id="2048"></path><path d="M90.63220625 489.5"  p-id="2049"></path><path d="M90.63220625 517.625C79.38220625 517.625 73.75720625 512 68.13220625 500.75 56.88220625 489.5 62.50720625 472.625 73.75720625 461.375l146.25-84.375C231.25720625 371.375 248.13220625 371.375 259.38220625 388.25 265.00720625 399.5 259.38220625 416.375 248.13220625 427.625L107.50720625 512C101.88220625 512 96.25720625 517.625 90.63220625 517.625z"  p-id="2050"></path><path d="M512.50720625 962c-163.125 0-315-90-393.75-230.625-5.625-11.25 0-28.125 11.25-39.375 11.25-5.625 28.125 0 39.375 11.25C236.88220625 827 366.25720625 905.75 512.50720625 905.75c219.375 0 393.75-174.375 393.75-393.75 0-219.375-180-393.75-393.75-393.75C293.13220625 118.25 124.38220625 275.75 118.75720625 483.875 118.75720625 500.75 107.50720625 512 90.63220625 512c0 0 0 0 0 0C73.75720625 512 62.50720625 500.75 62.50720625 483.875 73.75720625 242 265.00720625 62 512.50720625 62c247.5 0 450 202.5 450 450S760.00720625 962 512.50720625 962z"  p-id="2051"></path></svg>